<?xml version="1.0" encoding="UTF-8" standalone="no"?>
<!-- Created with Inkscape (http://www.inkscape.org/) -->

<svg
   xmlns:dc="http://purl.org/dc/elements/1.1/"
   xmlns:cc="http://creativecommons.org/ns#"
   xmlns:rdf="http://www.w3.org/1999/02/22-rdf-syntax-ns#"
   xmlns:svg="http://www.w3.org/2000/svg"
   xmlns="http://www.w3.org/2000/svg"
   xmlns:sodipodi="http://sodipodi.sourceforge.net/DTD/sodipodi-0.dtd"
   xmlns:inkscape="http://www.inkscape.org/namespaces/inkscape"
   width="631.76245"
   height="131.79536"
   id="svg2"
   version="1.1"
   inkscape:version="0.48.4 r9939"
   sodipodi:docname="Nouveau document 1">
  <defs
     id="defs4" />
  <sodipodi:namedview
     id="base"
     pagecolor="#ffffff"
     bordercolor="#666666"
     borderopacity="1.0"
     inkscape:pageopacity="0.0"
     inkscape:pageshadow="2"
     inkscape:zoom="0.7"
     inkscape:cx="181.23329"
     inkscape:cy="39.312746"
     inkscape:document-units="px"
     inkscape:current-layer="layer1"
     showgrid="false"
     fit-margin-top="0"
     fit-margin-left="0"
     fit-margin-right="0"
     fit-margin-bottom="0"
     inkscape:window-width="1253"
     inkscape:window-height="665"
     inkscape:window-x="0"
     inkscape:window-y="27"
     inkscape:window-maximized="0" />
  <metadata
     id="metadata7">
    <rdf:RDF>
      <cc:Work
         rdf:about="">
        <dc:format>image/svg+xml</dc:format>
        <dc:type
           rdf:resource="http://purl.org/dc/dcmitype/StillImage" />
        <dc:title></dc:title>
      </cc:Work>
    </rdf:RDF>
  </metadata>
  <g
     inkscape:label="Calque 1"
     inkscape:groupmode="layer"
     id="layer1"
     transform="translate(-97.887249,-264.96801)">
    <g
       id="g3059"
       style="fill:none;stroke:#000000;stroke-width:0.025in"
       transform="matrix(0.07529281,0,0,0.07529281,85.155705,266.8668)">
      <!-- Line -->
      <polyline
         id="polyline3061"
         style="fill:#000000;stroke:#000000;stroke-width:63;stroke-linecap:butt;stroke-linejoin:bevel"
         points="1322,0 188,850 1322,1700 566,1133 566,566 " />
      <!-- Line -->
      <polyline
         id="polyline3063"
         style="fill:#000000;stroke:#000000;stroke-width:63;stroke-linecap:butt;stroke-linejoin:bevel"
         points="1700,0 566,850 1700,1700 944,1133 944,566 " />
    </g>
    <g
       transform="matrix(0.07529281,0,0,0.07529281,454.93101,266.8668)"
       style="fill:none;stroke:#000000;stroke-width:0.025in"
       id="g3074">
      <!-- Line -->
      <polyline
         points="1322,0 188,850 1322,1700 566,1133 566,566 "
         style="fill:#000000;stroke:#000000;stroke-width:63;stroke-linecap:butt;stroke-linejoin:bevel"
         id="polyline3076" />
      <!-- Line -->
      <polyline
         points="1700,0 566,850 1700,1700 944,1133 944,566 "
         style="fill:#000000;stroke:#000000;stroke-width:63;stroke-linecap:butt;stroke-linejoin:bevel"
         id="polyline3078" />
    </g>
    <g
       id="g3121"
       style="fill:none;stroke:#000000;stroke-width:0.025in"
       transform="matrix(0.07529281,0,0,0.07529281,74.387014,195.75274)">
      <!-- Line -->
      <polyline
         id="polyline3123"
         style="fill:#000000;stroke:#000000;stroke-width:63;stroke-linecap:butt;stroke-linejoin:bevel"
         points="2551,944 2834,1228 3118,944 " />
      <!-- Line -->
      <polyline
         id="polyline3125"
         style="fill:#000000;stroke:#000000;stroke-width:63;stroke-linecap:butt;stroke-linejoin:bevel"
         points="1984,944 2267,1228 2551,944 " />
      <!-- Line -->
      <polyline
         id="polyline3127"
         style="fill:#000000;stroke:#000000;stroke-width:63;stroke-linecap:butt;stroke-linejoin:bevel"
         points="3118,944 3401,1228 3685,944 " />
      <!-- Line -->
      <polyline
         id="polyline3129"
         style="fill:#000000;stroke:#000000;stroke-width:63;stroke-linecap:butt;stroke-linejoin:bevel"
         points="2267,1228 2551,1511 2551,2645 2551,2645 2551,1511 2834,1228 " />
      <!-- Line -->
      <polyline
         id="polyline3131"
         style="fill:#000000;stroke:#000000;stroke-width:63;stroke-linecap:butt;stroke-linejoin:bevel"
         points="2834,1228 3118,1511 3118,2645 3118,2645 3118,1511 3401,1228 " />
    </g>
    <g
       id="g3229"
       style="fill:none;stroke:#000000;stroke-width:0.025in"
       transform="matrix(0.07529281,0,0,0.07529281,450.51807,195.75274)">
      <!-- Line -->
      <polyline
         id="polyline3231"
         style="fill:#000000;stroke:#000000;stroke-width:63;stroke-linecap:butt;stroke-linejoin:bevel"
         points="2551,944 2834,1228 3118,944 " />
      <!-- Line -->
      <polyline
         id="polyline3233"
         style="fill:#000000;stroke:#000000;stroke-width:63;stroke-linecap:butt;stroke-linejoin:bevel"
         points="1984,944 2267,1228 2551,944 " />
      <!-- Line -->
      <polyline
         id="polyline3235"
         style="fill:#000000;stroke:#000000;stroke-width:63;stroke-linecap:butt;stroke-linejoin:bevel"
         points="3118,944 3401,1228 3685,944 " />
      <!-- Line -->
      <polyline
         id="polyline3237"
         style="fill:#000000;stroke:#000000;stroke-width:63;stroke-linecap:butt;stroke-linejoin:bevel"
         points="1984,1228 2267,1511 2551,1228 " />
      <!-- Line -->
      <polyline
         id="polyline3239"
         style="fill:#000000;stroke:#000000;stroke-width:63;stroke-linecap:butt;stroke-linejoin:bevel"
         points="2551,1228 2834,1511 3118,1228 " />
      <!-- Line -->
      <polyline
         id="polyline3241"
         style="fill:#000000;stroke:#000000;stroke-width:63;stroke-linecap:butt;stroke-linejoin:bevel"
         points="3118,1228 3401,1511 3685,1228 " />
      <!-- Line -->
      <polyline
         id="polyline3243"
         style="fill:#000000;stroke:#000000;stroke-width:63;stroke-linecap:butt;stroke-linejoin:bevel"
         points="2551,1511 2834,1795 2834,2645 2834,2645 2834,1795 3118,1511 " />
    </g>
  </g>
</svg>
