<?xml version="1.0" encoding="UTF-8" standalone="no"?>
<!DOCTYPE svg PUBLIC "-//W3C//DTD SVG 1.1//EN" "http://www.w3.org/Graphics/SVG/1.1/DTD/svg11.dtd">
<svg width="624" height="300" viewBox="0 0 624 300" xmlns="http://www.w3.org/2000/svg" xmlns:xlink="http://www.w3.org/1999/xlink">
	<style type="text/css">
		.tlbl {
			font-family: Verdana, Geneva, sans-serif;
			 font-size: 18px; 
			 text-anchor: middle;
		}
		.ghl, .gvl, #grid_labels &gt; text {
			stroke: black;
			stroke-width: 1px;
		}
		.vlbl, .hlbl {
			font-size: 11px;
		}
		.vlbl {
			text-anchor: end;
			baseline-shift: 5ex;
		}
		.hlbl {
			text-anchor: middle;
		}
		.pt {
			stroke: black;
			stroke-width: 1px;
			stroke-opacity: 0.5;
			fill: blue;
			fill-opacity: 0.5;
		}
	</style>
	<g>
		<g>
			<text class="tlbl" x="312" y="20"><tspan>Distribution des lettres (%) dans un texte français</tspan></text>
		</g>
		<g>
			<line class="ghl" x1="24" x2="600" y1="32" y2="32"/>
			<line class="ghl" x1="24" x2="600" y1="48" y2="48"/>
			<line class="ghl" x1="24" x2="600" y1="64" y2="64"/>
			<line class="ghl" x1="24" x2="600" y1="80" y2="80"/>
			<line class="ghl" x1="24" x2="600" y1="96" y2="96"/>
			<line class="ghl" x1="24" x2="600" y1="112" y2="112"/>
			<line class="ghl" x1="24" x2="600" y1="128" y2="128"/>
			<line class="ghl" x1="24" x2="600" y1="144" y2="144"/>
			<line class="ghl" x1="24" x2="600" y1="160" y2="160"/>
			<line class="ghl" x1="24" x2="600" y1="176" y2="176"/>
			<line class="ghl" x1="24" x2="600" y1="192" y2="192"/>
			<line class="ghl" x1="24" x2="600" y1="208" y2="208"/>
			<line class="ghl" x1="24" x2="600" y1="224" y2="224"/>
			<line class="ghl" x1="24" x2="600" y1="240" y2="240"/>
			<line class="ghl" x1="24" x2="600" y1="256" y2="256"/>
			<line class="ghl" x1="24" x2="600" y1="272" y2="272"/>
		</g>
		<g>
			<line class="gvl" x1="32" x2="32" y1="32" y2="280"/>
			<line class="gvl" x1="48" x2="48" y1="272" y2="280"/>
			<line class="gvl" x1="64" x2="64" y1="272" y2="280"/>
			<line class="gvl" x1="80" x2="80" y1="272" y2="280"/>
			<line class="gvl" x1="96" x2="96" y1="272" y2="280"/>
			<line class="gvl" x1="112" x2="112" y1="272" y2="280"/>
			<line class="gvl" x1="128" x2="128" y1="272" y2="280"/>
			<line class="gvl" x1="144" x2="144" y1="272" y2="280"/>
			<line class="gvl" x1="160" x2="160" y1="272" y2="280"/>
			<line class="gvl" x1="176" x2="176" y1="272" y2="280"/>
			<line class="gvl" x1="192" x2="192" y1="272" y2="280"/>
			<line class="gvl" x1="208" x2="208" y1="272" y2="280"/>
			<line class="gvl" x1="224" x2="224" y1="272" y2="280"/>
			<line class="gvl" x1="240" x2="240" y1="272" y2="280"/>
			<line class="gvl" x1="256" x2="256" y1="272" y2="280"/>
			<line class="gvl" x1="272" x2="272" y1="272" y2="280"/>
			<line class="gvl" x1="288" x2="288" y1="272" y2="280"/>
			<line class="gvl" x1="304" x2="304" y1="272" y2="280"/>
			<line class="gvl" x1="320" x2="320" y1="272" y2="280"/>
			<line class="gvl" x1="336" x2="336" y1="272" y2="280"/>
			<line class="gvl" x1="352" x2="352" y1="272" y2="280"/>
			<line class="gvl" x1="368" x2="368" y1="272" y2="280"/>
			<line class="gvl" x1="384" x2="384" y1="272" y2="280"/>
			<line class="gvl" x1="400" x2="400" y1="272" y2="280"/>
			<line class="gvl" x1="416" x2="416" y1="272" y2="280"/>
			<line class="gvl" x1="432" x2="432" y1="272" y2="280"/>
			<line class="gvl" x1="448" x2="448" y1="272" y2="280"/>
			<line class="gvl" x1="464" x2="464" y1="272" y2="280"/>
			<line class="gvl" x1="480" x2="480" y1="272" y2="280"/>
			<line class="gvl" x1="496" x2="496" y1="272" y2="280"/>
			<line class="gvl" x1="512" x2="512" y1="272" y2="280"/>
			<line class="gvl" x1="528" x2="528" y1="272" y2="280"/>
			<line class="gvl" x1="544" x2="544" y1="272" y2="280"/>
			<line class="gvl" x1="560" x2="560" y1="272" y2="280"/>
			<line class="gvl" x1="576" x2="576" y1="272" y2="280"/>
			<line class="gvl" x1="592" x2="592" y1="272" y2="280"/>
		</g>
		<g id="grid_ordinate_labels">
			<text class="vlbl" x="20" y="276"><tspan>0</tspan></text>
			<text class="vlbl" x="20" y="260"><tspan>1</tspan></text>
			<text class="vlbl" x="20" y="244"><tspan>2</tspan></text>
			<text class="vlbl" x="20" y="228"><tspan>3</tspan></text>
			<text class="vlbl" x="20" y="212"><tspan>4</tspan></text>
			<text class="vlbl" x="20" y="196"><tspan>5</tspan></text>
			<text class="vlbl" x="20" y="180"><tspan>6</tspan></text>
			<text class="vlbl" x="20" y="164"><tspan>7</tspan></text>
			<text class="vlbl" x="20" y="148"><tspan>8</tspan></text>
			<text class="vlbl" x="20" y="132"><tspan>9</tspan></text>
			<text class="vlbl" x="20" y="116"><tspan>10</tspan></text>
			<text class="vlbl" x="20" y="100"><tspan>11</tspan></text>
			<text class="vlbl" x="20" y="84"><tspan>12</tspan></text>
			<text class="vlbl" x="20" y="68"><tspan>13</tspan></text>
			<text class="vlbl" x="20" y="52"><tspan>14</tspan></text>
			<text class="vlbl" x="20" y="36"><tspan>15</tspan></text>
		</g>
		<g id="grid_abscissa_labels">
			<text class="hlbl" x="32" y="290"><tspan>e</tspan></text>
			<text class="hlbl" x="48" y="290"><tspan>s</tspan></text>
			<text class="hlbl" x="64" y="290"><tspan>a</tspan></text>
			<text class="hlbl" x="80" y="290"><tspan>i</tspan></text>
			<text class="hlbl" x="96" y="290"><tspan>t</tspan></text>
			<text class="hlbl" x="112" y="290"><tspan>n</tspan></text>
			<text class="hlbl" x="128" y="290"><tspan>r</tspan></text>
			<text class="hlbl" x="144" y="290"><tspan>u</tspan></text>
			<text class="hlbl" x="160" y="290"><tspan>l</tspan></text>
			<text class="hlbl" x="176" y="290"><tspan>o</tspan></text>
			<text class="hlbl" x="192" y="290"><tspan>d</tspan></text>
			<text class="hlbl" x="208" y="290"><tspan>c</tspan></text>
			<text class="hlbl" x="224" y="290"><tspan>p</tspan></text>
			<text class="hlbl" x="240" y="290"><tspan>m</tspan></text>
			<text class="hlbl" x="256" y="290"><tspan>é</tspan></text>
			<text class="hlbl" x="272" y="290"><tspan>v</tspan></text>
			<text class="hlbl" x="288" y="290"><tspan>q</tspan></text>
			<text class="hlbl" x="304" y="290"><tspan>f</tspan></text>
			<text class="hlbl" x="320" y="290"><tspan>b</tspan></text>
			<text class="hlbl" x="336" y="290"><tspan>g</tspan></text>
			<text class="hlbl" x="352" y="290"><tspan>h</tspan></text>
			<text class="hlbl" x="368" y="290"><tspan>j</tspan></text>
			<text class="hlbl" x="384" y="290"><tspan>à</tspan></text>
			<text class="hlbl" x="400" y="290"><tspan>x</tspan></text>
			<text class="hlbl" x="416" y="290"><tspan>y</tspan></text>
			<text class="hlbl" x="432" y="290"><tspan>è</tspan></text>
			<text class="hlbl" x="448" y="290"><tspan>ê</tspan></text>
			<text class="hlbl" x="464" y="290"><tspan>z</tspan></text>
			<text class="hlbl" x="480" y="290"><tspan>w</tspan></text>
			<text class="hlbl" x="496" y="290"><tspan>ç</tspan></text>
			<text class="hlbl" x="512" y="290"><tspan>ù</tspan></text>
			<text class="hlbl" x="528" y="290"><tspan>k</tspan></text>
			<text class="hlbl" x="544" y="290"><tspan>î</tspan></text>
			<text class="hlbl" x="560" y="290"><tspan>œ</tspan></text>
			<text class="hlbl" x="576" y="290"><tspan>ï</tspan></text>
			<text class="hlbl" x="592" y="290"><tspan>ë</tspan></text>
		</g>
		<g id="points">
			<rect class="pt" x="29" y="033.560" width="6" height="6"/>
			<rect class="pt" x="45" y="141.832" width="6" height="6"/>
			<rect class="pt" x="61" y="146.824" width="6" height="6"/>
			<rect class="pt" x="77" y="148.536" width="6" height="6"/>
			<rect class="pt" x="93" y="153.096" width="6" height="6"/>
			<rect class="pt" x="109" y="155.480" width="6" height="6"/>
			<rect class="pt" x="125" y="164.152" width="6" height="6"/>
			<rect class="pt" x="141" y="168.024" width="6" height="6"/>
			<rect class="pt" x="157" y="181.704" width="6" height="6"/>
			<rect class="pt" x="173" y="182.952" width="6" height="6"/>
			<rect class="pt" x="189" y="210.296" width="6" height="6"/>
			<rect class="pt" x="205" y="216.840" width="6" height="6"/>
			<rect class="pt" x="221" y="220.664" width="6" height="6"/>
			<rect class="pt" x="237" y="221.512" width="6" height="6"/>
			<rect class="pt" x="253" y="238.536" width="6" height="6"/>
			<rect class="pt" x="269" y="242.952" width="6" height="6"/>
			<rect class="pt" x="285" y="247.208" width="6" height="6"/>
			<rect class="pt" x="301" y="251.944" width="6" height="6"/>
			<rect class="pt" x="317" y="254.584" width="6" height="6"/>
			<rect class="pt" x="333" y="255.546" width="6" height="6"/>
			<rect class="pt" x="349" y="257.208" width="6" height="6"/>
			<rect class="pt" x="365" y="260.280" width="6" height="6"/>
			<rect class="pt" x="381" y="261.224" width="6" height="6"/>
			<rect class="pt" x="397" y="262.808" width="6" height="6"/>
			<rect class="pt" x="413" y="264.072" width="6" height="6"/>
			<rect class="pt" x="429" y="264.664" width="6" height="6"/>
			<rect class="pt" x="445" y="265.400" width="6" height="6"/>
			<rect class="pt" x="461" y="266.824" width="6" height="6"/>
			<rect class="pt" x="477" y="267.176" width="6" height="6"/>
			<rect class="pt" x="493" y="267.640" width="6" height="6"/>
			<rect class="pt" x="509" y="268.072" width="6" height="6"/>
			<rect class="pt" x="525" y="268.216" width="6" height="6"/>
			<rect class="pt" x="541" y="268.280" width="6" height="6"/>
			<rect class="pt" x="557" y="268.712" width="6" height="6"/>
			<rect class="pt" x="573" y="268.904" width="6" height="6"/>
			<rect class="pt" x="589" y="269.000" width="6" height="6"/>
		</g>
		<g>
			<polyline style="stroke: blue; stroke-width: 1px; stroke-opacity: 0.5; fill: none;" points="      32, 36.560  48,144.832  64,149.824  80,151.536  96,156.096 112,158.480     128,167.152 144,171.024 160,184.704 176,185.952 192,213.296 208,219.840     224,223.664 240,224.512 256,241.536 272,245.952 288,250.208 304,254.944     320,257.584 336,258.546 352,260.208 368,263.280 384,264.224 400,265.808     416,267.072 432,267.664 448,268.400 464,269.824 480,270.176 496,270.640      512,271.072 528,271.216 544,271.280 560,271.712 576,271.904 592,272.000"/>
		</g>
	</g>
</svg>